<?xml version="1.0" standalone="no"?>
<!DOCTYPE svg PUBLIC "-//W3C//DTD SVG 20010904//EN"
 "http://www.w3.org/TR/2001/REC-SVG-20010904/DTD/svg10.dtd">
<svg version="1.0" xmlns="http://www.w3.org/2000/svg"
 width="735.000000pt" height="733.000000pt" viewBox="0 0 735.000000 733.000000"
 preserveAspectRatio="xMidYMid meet">

<g transform="translate(0.000000,733.000000) scale(0.100000,-0.100000)"
fill="#000000" stroke="none">
<path d="M0 3665 l0 -3665 468 0 467 0 18 43 c125 292 265 673 341 928 209
710 331 1165 366 1367 11 58 16 71 29 68 9 -3 57 -14 106 -26 50 -11 144 -34
210 -50 66 -15 144 -34 173 -40 154 -35 356 -139 519 -269 l53 -41 -25 -67
c-29 -75 -32 -58 42 -193 30 -54 55 -140 68 -231 l7 -46 -31 5 c-44 6 -78 -5
-96 -31 -10 -15 -18 -76 -26 -192 -13 -185 -11 -178 -99 -335 -27 -47 -69
-135 -95 -195 l-46 -111 -62 -24 c-75 -29 -122 -69 -151 -132 -20 -41 -21 -53
-12 -106 9 -60 9 -60 -32 -129 -37 -61 -42 -76 -42 -131 0 -43 4 -62 13 -62 8
0 12 18 12 58 0 52 5 66 40 118 39 58 40 60 40 151 0 77 3 96 21 119 21 29
141 101 151 91 3 -3 -11 -42 -32 -85 l-37 -79 47 -94 c50 -100 106 -187 157
-244 l30 -35 543 0 543 0 6 27 c4 16 23 63 44 106 35 76 37 79 65 73 16 -3 35
-6 41 -6 8 0 10 -31 8 -100 -4 -96 -3 -100 17 -100 19 0 21 6 21 63 0 34 3 79
6 99 6 35 9 38 38 38 29 0 34 -5 60 -64 15 -36 43 -81 63 -101 l35 -36 257 4
c156 2 270 8 292 15 75 25 244 140 339 232 57 55 180 230 180 256 0 8 5 14 10
14 6 0 10 -5 10 -11 0 -6 23 -60 51 -120 32 -70 57 -142 69 -201 21 -99 19
-110 -28 -160 l-26 -28 25 0 c17 0 30 9 41 28 29 49 31 100 9 197 -29 126 -41
209 -41 286 0 88 -23 149 -74 202 -41 41 -43 46 -55 137 -7 52 -22 129 -32
170 -23 88 -19 114 20 135 25 13 31 13 41 0 7 -8 13 -25 14 -39 0 -13 4 -22 9
-19 13 8 20 -28 9 -50 -36 -77 -20 -92 26 -23 19 30 38 53 41 51 8 -5 13 74 6
96 -8 25 -30 24 -57 -1 -24 -22 -45 -13 -50 22 -2 12 -11 26 -21 32 -15 9 -23
5 -46 -22 l-29 -33 -15 48 c-9 26 -20 64 -25 83 -6 19 -26 88 -46 154 -29 94
-37 138 -40 215 -2 73 -13 137 -45 263 -23 92 -41 182 -39 200 3 31 12 20 134
-163 73 -108 135 -207 139 -220 4 -13 11 -26 15 -29 9 -5 109 -177 147 -250
25 -49 42 -176 43 -310 0 -78 52 -632 70 -755 6 -38 26 -124 44 -190 19 -66
37 -139 41 -163 6 -37 27 -64 40 -51 7 7 -22 142 -54 252 -35 117 -55 240 -70
422 -6 66 -17 199 -26 295 -8 96 -19 243 -23 325 -10 176 -5 163 -166 419
-101 162 -119 195 -96 181 6 -4 7 1 3 11 -5 12 -3 15 6 9 10 -6 10 -3 0 16 -7
13 -12 38 -11 55 2 24 -2 33 -18 37 -17 4 -18 2 -9 -15 6 -11 13 -31 15 -45 4
-19 1 -24 -13 -21 -10 2 -22 12 -28 23 -13 26 -102 154 -127 181 -18 20 -18
21 9 45 l27 24 -16 -26 c-12 -18 -13 -30 -6 -40 8 -11 9 -11 4 3 -3 10 0 20 5
24 7 4 10 -3 9 -17 -3 -38 -1 -51 9 -45 5 3 11 -4 14 -15 6 -22 29 -22 33 -1
1 7 0 8 -3 2 -9 -18 -25 -11 -20 10 3 10 2 19 -2 18 -21 -2 -26 6 -27 44 -1
24 -2 63 -4 88 l-2 45 -13 -50 c-6 -28 -17 -49 -23 -47 -7 1 -12 -5 -12 -14 0
-8 -5 -12 -10 -9 -6 4 -8 10 -5 15 3 5 1 11 -5 15 -5 3 -9 21 -9 38 l2 32 7
-35 7 -35 2 37 c0 21 -4 38 -11 40 -14 5 -17 85 -5 133 6 24 5 26 -3 10 -8
-15 -9 -9 -5 29 3 27 5 112 5 190 0 83 4 135 9 127 7 -11 15 -9 40 10 17 12
31 26 31 31 0 14 -38 8 -44 -7 -8 -22 -26 -18 -26 5 0 11 6 20 14 20 8 0 18 4
21 10 3 6 -1 7 -9 4 -9 -3 -16 -1 -16 5 0 6 4 11 10 11 5 0 6 7 3 17 -5 11 -3
14 6 8 10 -5 11 -2 7 13 -4 11 -2 23 3 27 7 4 9 -1 5 -12 -5 -16 -4 -16 10 1
9 11 16 30 16 43 0 13 4 23 8 23 11 0 12 -39 1 -45 -5 -4 -9 -12 -9 -18 0 -7
4 -6 10 3 6 10 10 11 10 3 0 -7 5 -13 11 -13 8 0 8 5 -1 15 -9 11 -9 15 -1 15
7 0 9 5 5 13 -4 6 2 3 14 -7 23 -20 30 -32 12 -21 -5 3 -10 -1 -10 -9 0 -9 6
-13 13 -10 9 3 21 -12 35 -46 20 -49 52 -69 52 -33 0 9 3 14 6 10 3 -3 3 -15
-1 -27 -5 -15 -13 -20 -33 -18 -29 3 -39 -22 -12 -29 13 -4 13 -3 0 6 -8 5
-11 13 -7 17 4 4 13 2 19 -4 9 -9 18 -7 36 11 l25 22 -12 -23 c-7 -13 -8 -22
-2 -22 6 0 8 -6 5 -14 -3 -8 -1 -17 5 -21 6 -3 11 -1 11 4 0 16 16 13 34 -4
17 -17 46 -20 46 -4 0 5 -4 7 -10 4 -13 -8 -13 5 0 25 8 12 10 12 10 -5 0 -17
2 -18 11 -5 9 13 10 12 5 -3 -7 -22 13 -67 30 -67 7 0 17 -15 23 -32 5 -18 23
-66 40 -107 17 -40 31 -79 31 -87 0 -8 5 -14 11 -14 6 0 8 -9 4 -22 -4 -16 -3
-19 3 -10 7 11 11 7 16 -15 4 -15 23 -66 41 -113 19 -47 73 -186 121 -310 131
-339 138 -357 184 -470 28 -70 47 -135 56 -195 20 -141 34 -445 34 -755 0
-157 4 -291 9 -299 7 -11 17 -11 60 -1 28 7 62 10 74 6 13 -3 61 -47 107 -97
68 -75 97 -98 154 -125 71 -34 106 -42 106 -24 0 6 -6 10 -14 10 -7 0 -25 9
-39 20 -26 21 -26 33 -2 91 11 28 47 38 83 23 39 -16 129 -99 148 -136 12 -24
44 -40 44 -23 0 19 -47 92 -78 123 -37 37 -117 82 -146 82 -24 0 -78 -52 -96
-92 l-17 -38 -38 26 c-21 14 -48 38 -59 52 -11 15 -43 51 -70 80 l-49 52 -73
0 -74 0 -2 303 c-3 654 -16 774 -103 977 -13 30 -40 92 -59 138 -20 46 -36 87
-36 93 0 5 11 21 25 35 24 24 24 25 4 19 -14 -5 -19 -4 -15 4 5 7 -2 11 -17
11 -29 0 -44 32 -163 350 -40 107 -91 245 -114 305 -69 187 -123 286 -188 346
-32 30 -71 63 -87 75 l-30 21 90 7 c137 11 289 34 405 63 267 65 669 325 753
489 23 45 43 59 62 44 23 -19 27 -7 10 26 -8 16 -15 23 -15 15 0 -8 -2 -12 -5
-9 -3 2 6 27 19 54 50 103 59 150 63 340 5 173 4 183 -21 262 -29 92 -66 169
-136 287 -36 60 -76 106 -160 184 l-112 105 33 28 c19 16 77 61 129 100 52 40
113 88 135 108 l40 35 6 -56 c10 -97 122 -446 161 -503 15 -22 28 -46 28 -53
0 -6 5 -13 11 -15 5 -2 12 -16 13 -32 4 -37 28 -60 55 -51 11 3 21 13 21 21 0
21 -37 59 -58 59 -19 0 -79 111 -110 205 -55 168 -102 340 -104 384 l-3 50 77
60 c43 34 109 87 148 120 l70 58 19 -23 19 -24 27 25 c14 13 31 35 38 49 7 13
24 33 39 44 22 17 30 18 43 7 19 -16 20 -66 0 -74 -8 -3 -15 -12 -15 -19 0 -8
-9 -22 -20 -32 -27 -25 -11 -35 57 -35 44 0 56 -4 78 -27 19 -22 25 -24 25
-11 0 9 -6 21 -14 25 -23 14 -35 49 -29 87 3 22 9 33 13 26 5 -9 9 -9 14 -1
15 24 46 10 76 -34 19 -27 39 -45 50 -45 11 0 20 -4 20 -9 0 -18 -42 -82 -61
-92 -11 -5 -19 -18 -19 -27 0 -26 58 -77 116 -101 75 -32 160 -132 163 -194 1
-25 -28 -7 -54 32 -20 31 -35 40 -35 21 0 -16 61 -80 76 -80 8 0 14 -6 14 -14
0 -8 7 -16 15 -20 12 -4 15 4 15 39 0 24 -4 46 -9 50 -5 3 -13 30 -16 60 -6
43 -12 56 -29 62 -11 4 -25 6 -29 5 -11 -3 -67 30 -68 40 -1 4 -2 14 -3 21 -1
6 5 20 13 30 13 15 13 20 1 27 -7 5 -24 4 -38 -1 -34 -13 -52 -5 -52 23 1 27
15 47 53 71 34 22 34 35 0 50 -27 12 -42 41 -26 50 21 13 87 16 101 5 13 -11
14 -7 7 30 -6 38 -4 44 23 69 23 21 32 40 37 81 7 53 3 59 -37 54 -3 -1 -12 5
-18 14 -10 11 -10 18 4 32 25 29 20 73 -15 116 -37 44 -66 58 -94 43 -11 -6 0
13 26 44 25 30 73 93 107 140 l62 86 0 500 0 499 -26 55 c-14 30 -56 93 -92
142 l-66 87 -3583 0 -3583 0 0 -3665z m4070 3220 c268 -45 622 -183 790 -308
152 -113 260 -237 332 -382 36 -71 93 -225 122 -328 50 -173 91 -449 79 -534
l-5 -41 -67 34 c-36 18 -108 51 -159 73 -52 22 -123 59 -159 81 -80 51 -123
70 -288 127 -71 24 -156 59 -190 77 -141 78 -375 141 -615 166 -108 11 -343
-2 -480 -26 -228 -40 -613 -157 -914 -276 -76 -30 -275 -144 -344 -196 -18
-14 -35 -23 -37 -20 -7 7 38 268 70 415 15 65 47 178 71 252 24 74 44 138 44
143 0 4 20 60 46 124 25 64 43 119 40 121 -9 9 31 53 96 105 274 220 592 352
968 403 135 18 467 12 600 -10z m-2788 -1003 c71 -68 71 -69 60 -102 -26 -73
-2 -389 46 -607 l19 -82 -26 -5 c-14 -3 -55 -10 -91 -16 -112 -18 -162 -32
-253 -67 -48 -19 -93 -33 -101 -30 -17 7 -50 106 -67 197 -15 84 -15 430 1
503 11 54 13 57 50 67 46 12 87 5 99 -19 5 -9 16 -70 25 -136 37 -269 59 -411
66 -430 7 -18 8 -18 15 6 4 15 -7 123 -25 246 -37 261 -43 432 -17 480 20 37
59 62 100 63 20 0 45 -17 99 -68z m173 -94 c43 -19 62 -69 90 -234 9 -49 34
-159 57 -244 22 -85 42 -164 45 -175 2 -11 -7 -67 -19 -124 l-23 -104 -90 -24
c-94 -25 -114 -35 -182 -90 -46 -37 -113 -130 -113 -157 0 -29 28 -17 39 17
14 40 112 138 166 166 22 11 69 25 105 31 110 19 106 14 130 155 23 133 83
257 132 274 37 13 49 5 73 -45 16 -34 15 -36 -24 -135 -57 -142 -64 -196 -56
-446 5 -150 4 -222 -5 -247 -17 -53 -114 -137 -196 -171 -38 -15 -79 -32 -90
-37 -12 -6 -49 -8 -83 -6 -33 1 -60 1 -59 -2 24 -47 38 -120 47 -241 35 -469
93 -737 193 -890 23 -35 56 -102 74 -149 31 -81 54 -112 54 -73 0 29 -20 94
-45 145 -21 44 -22 48 -5 48 10 0 69 -18 131 -41 244 -86 258 -90 384 -96 66
-3 141 -11 168 -18 26 -8 47 -10 47 -5 0 5 -17 12 -37 16 l-38 8 40 8 c22 5
53 7 68 4 17 -4 26 -2 22 4 -4 6 19 10 60 10 62 0 66 -1 76 -27 5 -14 7 -33 4
-42 -3 -8 -3 -12 1 -8 9 8 75 -124 67 -135 -2 -5 0 -7 4 -6 14 5 106 -105 132
-156 18 -36 21 -55 16 -86 -7 -43 -15 -49 -36 -24 -7 9 -36 31 -64 49 -27 18
-63 44 -80 59 -16 14 -36 26 -43 26 -20 0 11 -53 50 -85 61 -49 67 -54 93 -71
14 -9 23 -19 21 -22 -3 -2 6 -13 19 -24 21 -16 25 -28 25 -71 0 -77 -12 -157
-21 -151 -5 3 -8 -3 -7 -13 3 -42 -2 -78 -11 -65 -6 10 -10 9 -14 -7 -3 -12
-1 -19 4 -15 5 3 9 0 9 -6 0 -23 -25 -3 -28 22 -2 20 -8 25 -22 21 -10 -3 -32
4 -49 16 -16 12 -34 21 -39 21 -6 0 -14 5 -18 12 -5 8 -2 9 10 5 11 -4 15 -3
11 4 -4 6 -14 8 -22 5 -15 -6 -87 39 -125 77 -11 12 -17 16 -13 9 6 -11 3 -12
-11 -4 -24 13 -64 46 -44 36 8 -4 11 -3 7 1 -8 10 -25 14 -72 19 -16 2 -31 9
-31 15 -1 6 -2 16 -3 21 0 6 -16 10 -33 10 -18 0 -40 5 -48 10 -11 7 -11 10
-2 10 7 0 10 4 7 10 -4 6 1 7 12 4 15 -5 16 -4 3 5 -22 16 -40 13 -40 -5 0
-12 -7 -14 -30 -9 -19 4 -30 3 -30 -4 0 -14 -46 -8 -195 26 -191 42 -374 100
-560 176 -99 40 -214 84 -255 97 -41 13 -80 27 -87 33 -21 16 -65 177 -73 272
-17 175 -30 404 -42 735 -13 345 -13 418 -3 457 5 20 -2 27 -57 53 -72 35
-103 62 -128 110 -37 73 -45 121 -46 310 -1 153 -5 202 -23 285 -18 77 -24
143 -28 290 l-5 190 29 34 29 34 34 -18 c60 -30 68 -42 75 -113 10 -107 24
-181 51 -272 14 -47 27 -93 30 -102 4 -13 -3 -21 -22 -28 -20 -8 -24 -14 -16
-22 8 -8 35 0 104 32 169 78 314 119 431 120 57 0 56 -6 22 156 -38 187 -58
358 -52 463 4 83 7 97 27 113 26 21 31 22 65 6z m2825 -138 c365 -41 503 -80
704 -203 44 -27 122 -67 171 -87 195 -83 302 -137 307 -158 8 -31 -1 -165 -12
-176 -7 -7 -10 -6 -10 1 0 19 -158 127 -255 175 -110 55 -192 82 -310 102 -49
8 -124 24 -165 35 -328 88 -603 148 -725 159 -60 5 -198 8 -305 7 -175 -3
-205 -6 -290 -30 -172 -48 -170 -48 -240 -35 -64 12 -66 12 -170 -28 -58 -22
-121 -44 -140 -50 -297 -90 -461 -155 -602 -239 -51 -30 -156 -87 -233 -125
-77 -39 -151 -80 -164 -92 l-24 -21 6 52 c10 90 40 142 113 196 124 92 436
243 664 321 128 44 523 156 675 191 93 22 438 45 600 40 72 -2 254 -18 405
-35z m1172 -157 c117 -102 187 -170 233 -228 56 -71 108 -169 119 -225 l7 -35
-26 33 c-34 41 -146 117 -252 171 -45 22 -86 49 -92 58 -5 10 -12 63 -16 118
-3 55 -9 108 -11 118 -7 24 1 22 38 -10z m117 -341 l34 -25 -5 -89 c-3 -49 -8
-91 -11 -94 -3 -4 -21 6 -40 20 -19 14 -40 26 -47 26 -9 0 -11 16 -6 68 15
145 12 141 75 94z m1531 18 c8 -5 11 -10 5 -10 -5 0 -17 5 -25 10 -8 5 -10 10
-5 10 6 0 17 -5 25 -10z m-3325 -66 c22 -3 43 -8 46 -12 6 -6 39 -226 39 -255
0 -7 -5 -6 -10 3 -8 11 -9 8 -5 -12 14 -76 16 -82 24 -69 11 17 25 -54 15 -72
-4 -6 -3 -9 1 -4 5 4 21 -30 37 -75 62 -179 182 -398 272 -496 64 -70 66 -62
66 245 0 145 3 262 8 260 4 -3 8 59 10 137 2 148 10 194 22 141 l8 -30 1 33
c0 17 5 32 11 32 5 0 7 8 3 18 -3 9 3 5 15 -10 12 -14 22 -33 22 -42 0 -9 4
-16 9 -16 15 0 0 42 -27 78 -13 17 -20 32 -16 32 15 -1 95 -130 88 -142 -4 -6
-3 -8 3 -5 15 9 105 -151 106 -186 0 -15 3 -23 7 -17 13 21 127 -279 148 -390
18 -90 42 -237 42 -254 0 -3 4 -6 10 -6 5 0 35 50 65 110 30 61 59 110 64 110
4 0 11 -51 15 -112 6 -120 17 -173 32 -172 5 0 33 33 62 73 48 67 52 71 53 45
0 -16 2 -38 5 -49 2 -11 7 -70 10 -130 6 -100 4 -126 -25 -265 -17 -85 -44
-241 -61 -347 -23 -150 -38 -214 -69 -295 -54 -144 -73 -175 -176 -301 -76
-92 -147 -153 -166 -141 -7 4 -9 3 -6 -3 3 -5 -16 -21 -43 -35 -35 -18 -47
-21 -42 -10 3 10 1 13 -6 8 -7 -4 -12 -14 -12 -22 0 -8 -7 -14 -15 -14 -8 0
-15 -5 -15 -11 0 -7 -10 -9 -24 -5 -14 3 -28 2 -31 -4 -3 -6 1 -7 12 -4 10 3
5 -2 -10 -11 -18 -10 -39 -14 -54 -10 -16 4 -22 2 -18 -5 3 -5 -1 -10 -9 -10
-9 0 -16 4 -16 8 0 7 -16 8 -77 4 -14 -1 -23 -9 -24 -19 -1 -17 -2 -17 -6 0
-6 23 -23 22 -18 -2 2 -11 -2 -22 -10 -24 -9 -4 -11 1 -8 14 10 37 -17 18 -41
-29 -26 -51 -113 -140 -164 -166 -38 -20 -150 -21 -195 -2 -18 7 -70 53 -115
102 -59 62 -86 84 -91 75 -6 -9 -29 -12 -79 -9 -38 2 -68 6 -65 11 2 4 14 7
26 7 17 0 19 2 8 9 -8 5 -21 7 -29 4 -8 -3 -17 -2 -21 3 -5 8 -27 18 -86 39
-19 6 -19 6 -2 -8 17 -14 16 -15 -4 -20 -12 -3 -44 3 -73 15 -28 11 -62 24
-76 30 -20 7 -22 11 -10 19 12 8 10 9 -6 4 -14 -3 -28 1 -38 10 -9 9 -16 14
-16 10 0 -3 -10 -1 -21 6 -18 9 -19 13 -8 21 11 8 10 9 -4 4 -11 -3 -33 4 -53
18 l-35 24 27 9 27 9 -34 20 c-19 12 -57 42 -86 68 -28 25 -54 42 -57 37 -9
-13 -39 -7 -44 10 -3 11 -2 11 6 1 7 -10 12 -9 23 4 9 12 10 15 2 10 -8 -4
-13 -1 -13 8 0 9 -4 16 -10 16 -5 0 -10 -4 -10 -10 0 -5 -5 -10 -10 -10 -7 0
-7 7 1 21 10 20 9 21 -9 17 -14 -4 -19 -2 -16 7 3 7 0 16 -7 21 -8 5 -10 3 -4
-7 5 -10 5 -11 -3 -4 -19 19 -42 85 -29 85 9 0 9 2 -1 8 -13 9 -35 72 -27 80
2 2 8 -11 14 -29 5 -19 10 -26 10 -16 1 10 -6 34 -14 54 -19 45 -19 52 0 27 8
-10 15 -14 15 -7 0 6 -5 15 -11 18 -6 4 -8 13 -5 20 9 26 -8 25 -18 -1 -10
-23 -15 -12 -54 113 -23 76 -47 153 -53 171 -8 26 -7 35 5 47 13 13 15 12 18
-12 2 -16 4 2 3 39 0 38 -4 68 -9 68 -4 0 -6 16 -4 35 4 36 -6 36 -15 0 -3
-13 -5 -9 -6 13 -1 35 -21 45 -21 10 0 -34 -7 -17 -14 36 -6 37 -5 46 5 41 8
-5 10 -4 5 4 -4 6 -12 9 -17 6 -14 -10 -11 13 7 41 12 17 14 28 7 35 -8 8 -13
7 -18 -2 -5 -8 -4 -10 3 -5 14 9 15 -3 3 -23 -8 -12 -11 -9 -16 12 -8 30 24
357 35 357 3 0 12 -22 19 -50 16 -64 32 -65 118 -5 35 25 70 45 77 45 6 0 21
-19 33 -42 23 -46 23 -46 44 37 10 39 26 64 76 116 54 56 79 73 185 123 226
106 213 96 215 152 4 71 -18 158 -41 162 -26 5 -109 -24 -198 -69 -43 -21 -78
-37 -78 -34 0 12 41 85 48 85 4 0 16 7 27 16 14 10 16 17 8 22 -8 5 1 31 30
89 22 45 45 80 49 77 4 -3 8 4 8 15 0 11 7 27 16 35 8 9 13 16 10 16 -4 0 10
24 30 54 23 36 41 53 50 49 10 -4 12 0 7 13 -4 12 -3 15 6 10 15 -9 43 12 35
26 -4 6 -10 5 -15 -3 -4 -7 -10 -11 -13 -8 -3 2 6 18 20 34 14 17 22 24 18 16
-3 -7 0 -17 7 -22 8 -5 9 -9 4 -9 -6 0 -12 -11 -13 -25 -2 -26 13 -34 21 -12
3 6 6 -5 6 -25 1 -21 -3 -38 -7 -38 -15 0 -7 -489 9 -545 17 -62 49 -76 49
-23 0 59 29 260 51 348 28 115 50 172 71 188 10 7 18 20 18 28 0 15 15 19 23
7 2 -5 1 -1 -2 7 -9 25 -7 133 2 162 5 16 14 25 20 21 5 -3 7 -2 4 4 -11 17
16 72 38 77 20 4 122 -1 200 -10z m2007 -116 l120 -113 -5 -85 c-3 -47 -9 -93
-13 -104 -6 -17 -8 -16 -18 7 -6 15 -39 49 -74 76 -157 126 -162 132 -162 183
0 45 19 148 28 148 2 0 58 -51 124 -112z m-1472 -16 c0 -7 -4 -10 -10 -7 -5 3
-10 16 -10 28 0 18 2 19 10 7 5 -8 10 -21 10 -28z m-1003 -39 c-3 -10 -5 -4
-5 12 0 17 2 24 5 18 2 -7 2 -21 0 -30z m190 5 c-3 -8 -6 -5 -6 6 -1 11 2 17
5 13 3 -3 4 -12 1 -19z m-16 -51 c-10 -9 -11 -8 -5 6 3 10 9 15 12 12 3 -3 0
-11 -7 -18z m-1 -56 c0 -6 -4 -13 -10 -16 -5 -3 -10 1 -10 9 0 9 5 16 10 16 6
0 10 -4 10 -9z m2560 -47 c35 -30 35 -33 14 -161 -4 -25 -3 -43 3 -43 12 0 38
54 48 99 l7 33 54 -53 c44 -43 54 -59 49 -77 -15 -61 -35 -229 -30 -250 9 -35
22 -17 30 41 9 62 32 177 37 183 7 7 78 -133 78 -154 0 -11 -9 -58 -20 -104
-21 -88 -26 -153 -11 -143 10 5 31 66 51 145 l12 45 25 -59 c56 -134 65 -307
24 -469 -19 -73 -87 -235 -95 -226 -2 2 2 49 9 104 15 111 10 143 -55 355 -49
160 -163 359 -285 498 -30 35 -58 74 -61 87 -6 25 11 179 21 196 7 11 51 -11
95 -47z m-2173 4 c-3 -7 -5 -2 -5 12 0 14 2 19 5 13 2 -7 2 -19 0 -25z m-1160
-220 c-3 -7 -5 -2 -5 12 0 14 2 19 5 13 2 -7 2 -19 0 -25z m-37 -18 c0 -5 -5
-10 -11 -10 -5 0 -7 5 -4 10 3 6 8 10 11 10 2 0 4 -4 4 -10z m-31 -115 c0 -5
-4 -3 -9 5 -9 13 -10 13 -10 -1 0 -21 -30 -122 -35 -117 -2 2 5 39 17 82 16
57 24 73 29 60 4 -11 8 -23 8 -29z m59 -47 c-1 -57 -2 -58 -5 -15 -2 26 -8 47
-14 47 -5 0 -9 7 -9 15 0 8 7 15 15 15 12 0 15 -13 13 -62z m-19 -33 c0 -5 -4
-3 -9 5 -8 12 -10 10 -10 -9 0 -13 -3 -22 -6 -18 -3 3 -3 21 1 39 7 29 9 30
16 13 4 -11 8 -24 8 -30z m-52 -7 c-3 -7 -5 -2 -5 12 0 14 2 19 5 13 2 -7 2
-19 0 -25z m304 -23 c5 4 6 -2 2 -11 -5 -13 -3 -15 8 -9 8 4 11 5 7 0 -4 -4
-1 -14 7 -22 8 -8 15 -19 15 -25 0 -6 -9 1 -20 15 -21 26 -46 27 -62 3 -5 -7
-8 -6 -8 2 0 8 9 16 20 19 15 4 17 9 10 23 -13 25 -12 40 1 17 6 -9 14 -15 20
-12z m-314 -27 c-3 -7 -5 -2 -5 12 0 14 2 19 5 13 2 -7 2 -19 0 -25z m64 -18
c6 0 7 5 3 12 -4 6 -3 8 4 5 19 -13 -1 -49 -34 -63 -19 -8 -34 -19 -34 -24 0
-9 -79 -55 -85 -48 -1 2 1 12 6 23 4 11 8 14 8 8 1 -7 6 -13 11 -13 6 0 9 6 8
13 -2 7 6 11 18 10 17 -2 21 2 17 17 -5 20 3 24 41 20 11 -1 15 3 12 9 -4 7
-1 8 8 5 17 -7 22 11 6 21 -5 3 -10 12 -9 18 0 9 2 9 6 0 2 -7 9 -13 14 -13z
m-81 -11 c0 -7 -12 -23 -26 -36 l-27 -24 8 28 c8 35 45 61 45 32z m306 -25
c-24 -21 -27 -28 -15 -35 11 -8 10 -9 -5 -7 -13 2 -20 13 -21 33 -2 17 -1 25
1 19 6 -13 44 -7 44 7 0 5 6 9 13 9 6 0 -1 -12 -17 -26z m2346 -459 c14 -13
30 -43 37 -67 17 -54 17 -210 2 -267 -18 -62 -62 -152 -72 -145 -5 3 -6 -2 -2
-11 3 -10 2 -20 -3 -24 -5 -3 -15 -19 -22 -34 -7 -17 -17 -25 -24 -21 -8 5 -9
2 -5 -9 3 -10 2 -17 -2 -17 -11 0 -23 29 -16 40 3 5 1 11 -5 15 -14 9 -13 -31
2 -55 11 -17 6 -26 -46 -77 -43 -43 -56 -52 -51 -34 5 16 4 21 -4 17 -6 -4
-11 -2 -11 3 0 6 7 11 15 11 20 0 19 16 0 24 -19 7 -29 -16 -21 -48 4 -16 1
-26 -10 -30 -10 -4 -13 -2 -8 6 5 7 7 29 5 50 -3 50 6 64 29 43 15 -13 19 -14
29 -1 9 11 8 14 -6 12 -12 -1 -19 9 -24 29 -4 20 -7 23 -8 9 -1 -21 -19 -44
-33 -44 -5 0 -6 12 -3 28 5 21 4 23 -4 11 -6 -9 -12 -46 -13 -82 -2 -36 -7
-63 -11 -60 -5 3 -6 21 -3 42 3 20 8 60 12 89 3 31 10 50 16 46 6 -4 8 2 4 17
-7 24 -7 24 8 -1 l15 -25 1 30 c1 28 2 29 10 8 5 -13 11 -23 13 -23 9 0 77 69
77 79 0 6 7 11 15 11 8 0 15 9 15 20 0 15 -7 20 -24 20 -16 0 -27 -7 -31 -20
-3 -11 -13 -20 -21 -20 -8 0 -22 9 -31 20 -23 26 -33 25 -34 -2 0 -13 -3 -17
-6 -11 -7 20 17 84 29 77 7 -4 8 -2 4 4 -8 14 10 52 33 69 14 10 17 7 22 -20
l6 -32 2 38 c1 39 -6 45 -28 25 -11 -11 -11 -9 -2 10 7 12 17 20 22 16 6 -3 9
2 7 12 -2 12 6 23 20 29 12 5 22 13 22 18 0 4 -6 5 -12 1 -7 -4 0 7 16 24 21
22 32 28 37 20 4 -7 5 -16 2 -20 -2 -5 0 -14 5 -21 5 -7 13 -27 17 -44 8 -38
23 -51 31 -28 6 15 -29 181 -40 193 -9 8 -75 -53 -111 -103 l-35 -50 0 32 c0
94 34 167 94 204 42 26 78 24 108 -6z m-2886 -169 c53 -54 72 -96 89 -196 l5
-35 -17 25 c-38 53 -97 111 -120 116 -40 10 -53 -11 -53 -85 0 -62 39 -224 58
-243 4 -4 8 27 7 71 0 58 -3 77 -12 74 -7 -3 -10 -10 -6 -16 3 -6 1 -7 -5 -3
-7 4 -12 29 -12 56 0 37 5 52 20 63 11 8 17 17 13 20 -3 4 -1 7 6 7 8 0 11 -6
7 -16 -4 -11 -2 -15 8 -11 17 7 60 -49 50 -65 -4 -6 -3 -8 3 -5 26 16 97 -133
78 -164 -6 -8 -4 -10 5 -4 10 6 12 1 8 -18 -3 -15 -2 -24 2 -22 9 6 48 -145
42 -163 -2 -7 -8 -10 -13 -6 -5 3 -9 0 -9 -5 0 -6 -4 -11 -10 -11 -5 0 -10 12
-10 27 0 26 -1 26 -15 7 -8 -10 -15 -14 -14 -9 3 25 -2 37 -15 32 -16 -6 -60
36 -49 47 5 4 3 6 -4 4 -11 -3 -49 41 -104 122 -16 25 -41 82 -56 127 -22 72
-25 96 -21 185 5 121 16 148 60 148 25 0 43 -11 84 -54z m-49 -148 c-3 -7 -5
-2 -5 12 0 14 2 19 5 13 2 -7 2 -19 0 -25z m180 -40 c-3 -7 -5 -2 -5 12 0 14
2 19 5 13 2 -7 2 -19 0 -25z m10 -70 c-3 -7 -5 -2 -5 12 0 14 2 19 5 13 2 -7
2 -19 0 -25z m20 10 c-3 -8 -6 -5 -6 6 -1 11 2 17 5 13 3 -3 4 -12 1 -19z
m2500 -50 c-3 -7 -5 -2 -5 12 0 14 2 19 5 13 2 -7 2 -19 0 -25z m-30 -30 c-3
-7 -5 -2 -5 12 0 14 2 19 5 13 2 -7 2 -19 0 -25z m3 -189 c0 -16 -4 -28 -9
-25 -8 5 -3 56 5 56 2 0 4 -14 4 -31z m175 -250 c11 -16 1 -19 -13 -3 -7 8 -8
14 -3 14 5 0 13 -5 16 -11z m-14 -53 c-9 -11 -9 -15 1 -19 7 -3 9 -6 3 -6 -5
0 -17 4 -25 10 -11 8 -12 12 -2 16 6 2 12 12 12 21 0 12 3 13 12 4 8 -8 8 -15
-1 -26z m-2367 -152 c3 -8 2 -12 -4 -9 -6 3 -10 10 -10 16 0 14 7 11 14 -7z
m56 -54 c27 -23 39 -19 19 7 -13 16 -12 17 4 4 10 -8 15 -21 12 -29 -4 -10 0
-13 15 -9 11 3 18 1 14 -4 -9 -16 -29 -10 -64 21 -19 16 -32 29 -29 30 3 0 16
-9 29 -20z m-665 -250 c3 -5 2 -10 -4 -10 -5 0 -13 5 -16 10 -3 6 -2 10 4 10
5 0 13 -4 16 -10z m1152 4 c-3 -3 -12 -4 -19 -1 -8 3 -5 6 6 6 11 1 17 -2 13
-5z m1754 -427 c-10 -9 -11 -8 -5 6 3 10 9 15 12 12 3 -3 0 -11 -7 -18z m-851
-127 c0 -5 -10 -10 -22 -9 -22 0 -22 1 -3 9 11 5 21 9 23 9 1 1 2 -3 2 -9z
m-63 -26 c-3 -3 -12 -4 -19 -1 -8 3 -5 6 6 6 11 1 17 -2 13 -5z m-569 -116
c-3 -7 13 -21 34 -31 21 -11 37 -22 34 -24 -5 -6 -95 37 -102 49 -3 4 2 5 10
2 9 -3 16 -1 16 5 0 6 3 11 6 11 3 0 4 -5 2 -12z m72 -28 c0 -5 -2 -10 -4 -10
-3 0 -8 5 -11 10 -3 6 -1 10 4 10 6 0 11 -4 11 -10z m705 -120 c4 -6 11 -8 16
-5 5 3 6 -1 2 -11 -6 -15 -7 -15 -15 1 -7 11 -17 15 -33 11 -13 -3 -27 -2 -30
4 -4 6 6 10 24 10 16 0 33 -5 36 -10z m22 -72 c-3 -7 -5 -2 -5 12 0 14 2 19 5
13 2 -7 2 -19 0 -25z m-1587 -28 c0 -5 -2 -10 -4 -10 -3 0 -8 5 -11 10 -3 6
-1 10 4 10 6 0 11 -4 11 -10z m1590 0 c0 -5 -2 -10 -4 -10 -3 0 -8 5 -11 10
-3 6 -1 10 4 10 6 0 11 -4 11 -10z m-1569 -68 c-10 -25 -10 -25 -5 8 4 26 3
31 -5 20 -12 -17 -14 -10 -5 15 6 16 8 16 16 1 6 -11 5 -27 -1 -44z m1578 21
c0 -11 -3 -13 -6 -5 -2 6 -10 9 -15 6 -7 -4 -8 -2 -4 4 11 18 26 14 25 -5z
m-1682 -90 c-3 -10 -5 -2 -5 17 0 19 2 27 5 18 2 -10 2 -26 0 -35z m80 25 c-3
-8 -6 -5 -6 6 -1 11 2 17 5 13 3 -3 4 -12 1 -19z m-90 -150 c-3 -7 -5 -2 -5
12 0 14 2 19 5 13 2 -7 2 -19 0 -25z m2113 -62 c0 -3 -4 -8 -10 -11 -5 -3 -10
-1 -10 4 0 6 5 11 10 11 6 0 10 -2 10 -4z m-90 -86 c0 -5 -5 -10 -11 -10 -5 0
-7 5 -4 10 3 6 8 10 11 10 2 0 4 -4 4 -10z m318 -26 c-3 -14 -5 -12 -10 9 -3
19 -2 25 4 19 6 -6 8 -18 6 -28z m-21 -26 c-3 -8 -6 -5 -6 6 -1 11 2 17 5 13
3 -3 4 -12 1 -19z m40 -100 c-3 -8 -6 -5 -6 6 -1 11 2 17 5 13 3 -3 4 -12 1
-19z m-2470 -30 c-3 -8 -6 -5 -6 6 -1 11 2 17 5 13 3 -3 4 -12 1 -19z m-36
-31 c-10 -9 -11 -8 -5 6 3 10 9 15 12 12 3 -3 0 -11 -7 -18z m1899 -27 c0 -5
-4 -10 -10 -10 -5 0 -10 5 -10 10 0 6 5 10 10 10 6 0 10 -4 10 -10z m627 -12
c-3 -8 -6 -5 -6 6 -1 11 2 17 5 13 3 -3 4 -12 1 -19z m-2210 -20 c-3 -8 -6 -5
-6 6 -1 11 2 17 5 13 3 -3 4 -12 1 -19z m2343 -166 c6 -39 10 -83 8 -99 l-3
-28 -17 31 c-18 32 -58 180 -58 211 1 14 6 12 29 -13 22 -24 32 -49 41 -102z
m-2726 12 c5 -14 4 -15 -9 -4 -17 14 -19 20 -6 20 5 0 12 -7 15 -16z m1236
-66 c14 -26 18 -38 8 -31 -8 7 -18 10 -22 6 -4 -4 -4 1 0 11 5 14 4 17 -4 12
-7 -4 -12 -1 -12 8 0 8 -4 16 -9 18 -4 2 -12 14 -16 28 -7 24 -7 24 12 8 10
-10 30 -37 43 -60z m-238 -38 c4 -3 -11 -5 -33 -6 -37 -1 -39 1 -19 11 19 10
20 13 6 24 -13 11 -16 11 -16 1 0 -8 -3 -11 -6 -7 -3 3 -3 11 1 17 5 8 15 4
34 -12 14 -12 29 -25 33 -28z m-382 10 c0 -5 -2 -10 -4 -10 -3 0 -8 5 -11 10
-3 6 -1 10 4 10 6 0 11 -4 11 -10z m93 -41 c21 0 21 -1 2 -8 -25 -10 -35 -5
-34 17 0 11 3 12 6 5 2 -7 14 -13 26 -14z m362 -6 l36 -17 -23 -13 -23 -14 25
7 c19 5 22 3 14 -5 -7 -8 -22 -9 -39 -5 l-28 7 29 13 29 14 -40 -4 c-22 -3
-32 -2 -22 0 24 7 22 28 -3 21 -11 -3 -18 -1 -14 4 8 13 18 11 59 -8z m-295
-12 c0 -5 -9 -7 -20 -4 -11 3 -20 7 -20 9 0 2 9 4 20 4 11 0 20 -4 20 -9z m40
-22 c0 -5 -4 -9 -10 -9 -5 0 -10 7 -10 16 0 8 5 12 10 9 6 -3 10 -10 10 -16z
m327 5 c-3 -3 -12 -4 -19 -1 -8 3 -5 6 6 6 11 1 17 -2 13 -5z m-367 -14 c0 -5
-7 -7 -15 -4 -8 4 -15 8 -15 10 0 2 7 4 15 4 8 0 15 -4 15 -10z m410 0 c0 -5
-4 -10 -9 -10 -6 0 -13 5 -16 10 -3 6 1 10 9 10 9 0 16 -4 16 -10z m593 -37
c-7 -2 -19 -2 -25 0 -7 3 -2 5 12 5 14 0 19 -2 13 -5z m47 -3 c0 -5 -6 -11
-12 -11 -7 -1 1 -5 17 -9 27 -7 28 -8 5 -8 -30 -1 -76 16 -47 17 9 1 17 6 17
11 0 6 5 10 10 10 6 0 10 -4 10 -10z m-503 -66 c-3 -3 -12 -4 -19 -1 -8 3 -5
6 6 6 11 1 17 -2 13 -5z m-1373 -20 c3 -8 2 -12 -4 -9 -6 3 -10 10 -10 16 0
14 7 11 14 -7z m1380 -3 c4 -5 -3 -7 -14 -4 -23 6 -26 13 -6 13 8 0 17 -4 20
-9z m73 3 c-3 -3 -12 -4 -19 -1 -8 3 -5 6 6 6 11 1 17 -2 13 -5z m50 0 c-3 -3
-12 -4 -19 -1 -8 3 -5 6 6 6 11 1 17 -2 13 -5z m-230 -10 c-3 -3 -12 -4 -19
-1 -8 3 -5 6 6 6 11 1 17 -2 13 -5z m336 -1 c-7 -2 -21 -2 -30 0 -10 3 -4 5
12 5 17 0 24 -2 18 -5z m-710 -50 c3 -5 -5 -8 -18 -8 -13 0 -21 3 -18 8 2 4
10 7 18 7 8 0 16 -3 18 -7z m-813 -38 c0 -5 -5 -3 -10 5 -5 8 -10 20 -10 25 0
6 5 3 10 -5 5 -8 10 -19 10 -25z m875 25 c-11 -5 -27 -9 -35 -9 -9 0 -8 4 5 9
11 5 27 9 35 9 9 0 8 -4 -5 -9z m-56 -14 c-2 -2 -17 -6 -34 -10 -22 -5 -26 -4
-15 4 14 9 59 15 49 6z m-734 -128 c4 -3 2 -9 -3 -12 -5 -3 -15 1 -21 8 -10
11 -9 14 3 12 9 -1 18 -5 21 -8z m1872 -14 c-3 -3 -12 -4 -19 -1 -8 3 -5 6 6
6 11 1 17 -2 13 -5z"/>
<path d="M4490 6398 c0 -24 69 -201 85 -217 30 -31 27 3 -9 94 -39 97 -75 156
-76 123z"/>
<path d="M4300 6378 c0 -6 19 -58 41 -115 37 -93 59 -126 75 -111 8 8 -37 141
-65 190 -24 45 -51 63 -51 36z"/>
<path d="M4788 6345 c-13 -13 62 -248 88 -274 29 -31 24 2 -21 138 -44 132
-53 150 -67 136z"/>
<path d="M2944 6260 c-5 -8 -14 -25 -21 -38 -15 -28 -48 -190 -40 -198 14 -14
26 13 51 116 27 106 31 151 10 120z"/>
<path d="M2508 6193 c-42 -46 -115 -270 -95 -290 13 -13 27 13 52 98 13 47 34
106 45 132 26 58 24 90 -2 60z"/>
<path d="M2731 6193 c-33 -63 -55 -209 -29 -201 8 3 54 169 57 211 2 14 -18 7
-28 -10z"/>
<path d="M4457 6018 c-4 -14 1 -38 36 -164 22 -83 43 -106 41 -46 -2 40 -55
222 -65 222 -4 0 -9 -6 -12 -12z"/>
<path d="M4110 6005 c0 -23 82 -195 93 -195 16 0 -1 60 -39 138 -33 68 -54 90
-54 57z"/>
<path d="M4648 5945 c-13 -13 51 -237 67 -235 16 2 8 63 -20 155 -24 79 -33
94 -47 80z"/>
<path d="M2911 5878 c-14 -54 -20 -124 -12 -137 16 -25 29 11 36 92 8 95 -4
118 -24 45z"/>
<path d="M3090 5896 c0 -46 23 -126 37 -126 18 0 17 46 -3 103 -17 51 -34 62
-34 23z"/>
<path d="M5054 5714 c10 -82 16 -104 32 -104 17 0 17 17 1 94 -17 83 -43 90
-33 10z"/>
<path d="M920 4732 c0 -4 16 -14 35 -21 19 -7 54 -34 78 -62 46 -54 57 -59 57
-29 0 27 -58 90 -97 106 -36 15 -73 18 -73 6z"/>
<path d="M1083 4133 c10 -51 37 -103 53 -103 18 0 14 21 -18 88 -22 48 -43 57
-35 15z"/>
<path d="M1184 4107 c-10 -27 0 -72 16 -72 11 0 15 11 15 39 0 40 -20 61 -31
33z"/>
<path d="M1940 2926 c0 -2 7 -9 15 -16 9 -7 15 -8 15 -2 0 5 -7 12 -15 16 -8
3 -15 4 -15 2z"/>
<path d="M1976 2891 c-9 -15 18 -31 34 -21 12 8 12 10 -3 10 -10 0 -15 5 -12
10 3 6 2 10 -4 10 -5 0 -12 -4 -15 -9z"/>
<path d="M2068 2883 c7 -3 16 -2 19 1 4 3 -2 6 -13 5 -11 0 -14 -3 -6 -6z"/>
<path d="M2428 2883 c7 -3 16 -2 19 1 4 3 -2 6 -13 5 -11 0 -14 -3 -6 -6z"/>
<path d="M2305 2870 c27 -12 43 -12 25 0 -8 5 -22 9 -30 9 -10 0 -8 -3 5 -9z"/>
<path d="M2002 2853 c12 -27 122 -183 147 -209 17 -17 44 -57 61 -89 22 -41
30 -51 30 -34 0 37 -11 69 -21 63 -5 -3 -9 2 -9 12 0 9 -17 32 -37 51 -23 21
-30 31 -18 27 16 -6 18 -5 9 7 -6 8 -10 31 -9 51 1 20 -2 35 -7 32 -5 -3 -6
-14 -3 -25 4 -10 2 -26 -3 -34 -7 -14 -13 -11 -35 19 -28 35 -34 52 -18 41 5
-3 12 -1 16 5 3 5 2 10 -3 10 -6 0 -19 16 -31 36 -12 19 -25 33 -30 29 -5 -3
-12 -1 -16 5 -7 11 -28 14 -23 3z m45 -35 c-3 -8 -6 -5 -6 6 -1 11 2 17 5 13
3 -3 4 -12 1 -19z"/>
<path d="M2110 2759 c-11 -8 -12 -12 -2 -16 6 -2 12 -11 12 -19 0 -8 5 -14 10
-14 13 0 13 17 -1 25 -6 4 -8 13 -5 21 6 17 5 17 -14 3z"/>
<path d="M2185 2670 c-3 -5 -1 -10 4 -10 6 0 11 5 11 10 0 6 -2 10 -4 10 -3 0
-8 -4 -11 -10z"/>
<path d="M2720 2626 c0 -2 8 -10 18 -17 15 -13 16 -12 3 4 -13 16 -21 21 -21
13z"/>
<path d="M2750 2571 c0 -5 5 -13 10 -16 6 -3 10 -2 10 4 0 5 -4 13 -10 16 -5
3 -10 2 -10 -4z"/>
<path d="M2767 2461 c15 -16 30 -27 32 -25 6 6 -40 54 -51 54 -5 0 3 -13 19
-29z"/>
<path d="M2790 2479 c0 -5 5 -7 10 -4 6 3 10 8 10 11 0 2 -4 4 -10 4 -5 0 -10
-5 -10 -11z"/>
<path d="M2725 2391 c-3 -5 -2 -12 3 -15 5 -3 9 1 9 9 0 17 -3 19 -12 6z"/>
<path d="M2125 2360 c-3 -5 -1 -10 4 -10 6 0 11 5 11 10 0 6 -2 10 -4 10 -3 0
-8 -4 -11 -10z"/>
<path d="M2253 2343 c9 -2 23 -2 30 0 6 3 -1 5 -18 5 -16 0 -22 -2 -12 -5z"/>
<path d="M2440 2273 c8 -3 22 -11 30 -17 13 -10 13 -9 1 7 -7 9 -21 17 -30 16
-13 0 -14 -1 -1 -6z"/>
<path d="M2510 2203 c0 -1 8 -7 18 -12 13 -7 19 -6 19 2 0 7 -9 13 -19 13 -10
0 -18 -1 -18 -3z"/>
<path d="M2700 2200 c0 -5 5 -10 10 -10 6 0 10 5 10 10 0 6 -4 10 -10 10 -5 0
-10 -4 -10 -10z"/>
<path d="M2730 2191 c0 -11 4 -22 9 -25 4 -3 6 6 3 19 -5 30 -12 33 -12 6z"/>
<path d="M2610 2196 c0 -2 7 -7 16 -10 8 -3 12 -2 9 4 -6 10 -25 14 -25 6z"/>
<path d="M2594 2181 c7 -11 46 -35 46 -28 0 3 -12 12 -26 22 -15 9 -23 12 -20
6z"/>
<path d="M2688 2123 c6 -2 18 -2 25 0 6 3 1 5 -13 5 -14 0 -19 -2 -12 -5z"/>
<path d="M3638 5103 c7 -3 16 -2 19 1 4 3 -2 6 -13 5 -11 0 -14 -3 -6 -6z"/>
<path d="M3703 5093 c9 -2 23 -2 30 0 6 3 -1 5 -18 5 -16 0 -22 -2 -12 -5z"/>
<path d="M3801 5074 c0 -11 3 -14 6 -6 3 7 2 16 -1 19 -3 4 -6 -2 -5 -13z"/>
<path d="M3550 5066 c0 -9 5 -16 10 -16 6 0 10 4 10 9 0 6 -4 13 -10 16 -5 3
-10 -1 -10 -9z"/>
<path d="M3647 5043 c-10 -9 -9 -33 1 -33 4 0 8 9 9 20 2 21 0 24 -10 13z"/>
<path d="M3593 4975 c0 -27 2 -38 4 -22 2 15 2 37 0 50 -2 12 -4 0 -4 -28z"/>
<path d="M4326 4922 c-8 -13 14 -72 27 -72 5 0 5 5 1 12 -4 6 -10 25 -13 42
-5 21 -9 27 -15 18z"/>
<path d="M3237 4873 c-14 -15 -19 -15 -26 -5 -6 11 -10 10 -15 -4 -3 -9 -4
-19 -1 -22 3 -3 5 -1 5 5 0 6 8 9 18 6 10 -2 26 5 36 16 23 25 7 28 -17 4z"/>
<path d="M3276 4871 c-4 -7 -5 -15 -2 -18 9 -9 19 4 14 18 -4 11 -6 11 -12 0z"/>
<path d="M3160 4811 c-13 -26 -5 -42 17 -34 10 4 14 2 10 -4 -4 -6 -2 -22 3
-35 8 -19 10 -14 6 25 -5 59 -19 78 -36 48z m13 -16 c-3 -9 -8 -14 -10 -11 -3
3 -2 9 2 15 9 16 15 13 8 -4z"/>
<path d="M4290 4786 c0 -8 4 -17 9 -20 5 -4 7 3 4 14 -6 23 -13 26 -13 6z"/>
<path d="M4359 4688 c-6 -16 -25 -40 -41 -53 -16 -14 -26 -25 -21 -26 8 -1 19
-2 82 -14 18 -4 59 -18 90 -33 31 -15 59 -28 64 -30 4 -2 7 1 7 7 0 11 -79 51
-102 51 -9 0 -9 3 2 10 10 6 11 10 3 10 -9 0 -13 17 -13 49 0 46 -1 49 -30 53
-24 4 -31 0 -41 -24z"/>
<path d="M3077 4663 c-9 -19 -14 -39 -11 -45 4 -7 2 -8 -4 -4 -8 4 -16 -3 -22
-19 -11 -29 -6 -45 13 -44 9 0 9 2 0 6 -18 6 -16 23 1 23 8 0 16 5 18 12 3 9
6 9 12 0 4 -7 2 -12 -3 -12 -6 0 -11 -5 -11 -10 0 -7 8 -6 23 2 12 7 26 11 30
10 5 -1 6 2 2 8 -4 6 7 10 27 11 18 0 27 3 21 6 -7 2 -15 4 -18 3 -10 -2 -35
29 -48 58 l-12 29 -18 -34z m25 -39 c-13 -23 -25 -1 -16 28 6 19 7 19 16 5 5
-10 5 -23 0 -33z"/>
<path d="M3185 4682 c-13 -29 -12 -52 2 -52 7 0 13 6 13 14 0 8 6 16 12 18 9
3 8 9 -4 21 -15 15 -17 15 -23 -1z"/>
<path d="M4280 4680 c0 -11 2 -20 4 -20 2 0 6 9 9 20 3 11 1 20 -4 20 -5 0 -9
-9 -9 -20z"/>
<path d="M3495 4681 c-54 -12 -13 -18 130 -20 77 -1 159 -4 183 -7 26 -4 42
-2 42 4 0 6 -10 8 -22 4 -15 -4 -19 -2 -14 7 6 10 -8 11 -63 5 -50 -5 -71 -3
-71 5 0 12 -132 14 -185 2z"/>
<path d="M3207 4631 c-3 -12 -1 -21 3 -21 15 0 23 21 12 32 -6 6 -11 2 -15
-11z"/>
<path d="M4478 4608 c-10 -10 -14 -18 -9 -18 10 0 36 29 30 34 -2 1 -12 -6
-21 -16z"/>
<path d="M4290 4057 c-150 -75 -347 -198 -357 -223 -3 -7 3 -21 13 -31 12 -13
16 -13 12 -3 -3 9 15 27 51 51 57 37 86 43 41 9 -14 -11 -20 -20 -13 -20 16 0
43 28 43 46 0 8 11 14 28 15 15 0 21 3 14 6 -8 3 14 19 50 37 64 33 87 38 52
11 -19 -15 -19 -15 1 -9 20 6 20 5 1 -10 -11 -9 -25 -16 -30 -17 -6 0 -2 -5 9
-10 16 -8 15 -9 -10 -5 -16 3 -37 6 -45 9 -8 2 -12 2 -8 0 15 -9 -21 -33 -39
-27 -15 5 -16 4 -3 -5 13 -10 13 -12 0 -21 -8 -5 -10 -10 -4 -10 6 0 23 11 38
25 30 27 57 35 36 10 -10 -12 -10 -15 2 -15 8 0 20 6 28 13 12 10 12 9 0 -6
-8 -11 -21 -16 -32 -13 -26 6 -87 -47 -68 -59 8 -5 11 -4 7 2 -8 13 20 39 30
29 4 -4 2 -10 -4 -14 -6 -4 -20 -23 -32 -42 -20 -32 -21 -33 -15 -7 9 38 -11
60 -49 51 -20 -4 -27 -3 -23 5 13 20 -10 12 -30 -11 -12 -13 -13 -18 -4 -13 8
5 30 10 47 11 26 1 31 -2 22 -13 -6 -7 -22 -13 -35 -13 -19 0 -24 -5 -24 -24
0 -13 -3 -33 -6 -43 -5 -14 -4 -15 4 -4 9 12 11 12 15 0 2 -8 2 -4 0 9 -3 17
1 22 17 22 11 0 23 -7 26 -15 4 -8 10 -12 15 -9 5 3 9 -11 9 -30 0 -48 14 -45
30 5 18 55 99 142 158 171 39 19 63 23 142 23 160 0 253 -41 303 -133 42 -78
65 -67 28 14 -23 51 -80 98 -151 126 -44 17 -77 22 -165 22 -60 1 -119 -2
-131 -7 -16 -6 -23 -2 -30 15 -16 37 -6 54 49 83 92 49 147 87 147 101 0 8 -4
14 -8 14 -4 0 -73 -33 -152 -73z"/>
<path d="M3180 4014 c0 -8 55 -54 103 -86 23 -15 42 -34 43 -43 3 -21 22 -43
48 -57 16 -8 15 -5 -6 17 -16 15 -28 33 -27 39 0 7 3 6 6 -2 2 -6 9 -10 13 -7
5 3 26 -2 47 -11 21 -9 45 -18 54 -19 18 -2 71 -40 64 -46 -2 -2 7 -9 21 -16
30 -14 31 -2 3 44 -24 39 -75 67 -139 78 -58 10 -95 29 -147 76 -36 33 -83 52
-83 33z"/>
<path d="M3365 3860 c3 -5 14 -10 23 -10 15 0 15 2 2 10 -20 13 -33 13 -25 0z"/>
<path d="M2959 3815 c-87 -28 -140 -72 -181 -153 -39 -76 -48 -115 -25 -106 7
2 18 24 24 47 13 49 61 119 98 143 52 34 155 64 220 64 67 0 201 -36 242 -65
12 -8 41 -42 64 -75 43 -61 66 -77 53 -37 -8 27 -55 96 -81 119 -10 9 -45 30
-78 45 -53 24 -73 28 -175 30 -80 2 -129 -2 -161 -12z"/>
<path d="M3490 3769 c0 -8 5 -20 12 -27 6 -6 8 -15 4 -19 -4 -4 -16 3 -26 17
-10 14 -21 22 -25 19 -3 -4 27 -36 66 -73 40 -36 75 -64 77 -61 6 6 88 -163
98 -199 7 -29 34 -36 34 -8 -1 9 -21 53 -46 97 -25 44 -61 114 -81 155 -19 41
-42 83 -50 92 -18 20 -35 15 -26 -9 4 -11 2 -14 -8 -11 -8 3 -14 10 -14 16 0
5 -3 14 -7 18 -5 4 -8 1 -8 -7z m61 -27 c-6 -2 -8 -8 -5 -13 7 -13 -15 -41
-27 -33 -14 8 -11 24 4 22 7 -2 12 8 11 24 0 22 2 25 14 15 9 -7 10 -13 3 -15z
m13 -56 c-3 -9 -10 -13 -16 -10 -5 3 -4 12 3 20 15 18 22 13 13 -10z m36 -50
c0 -5 -7 -1 -15 10 -8 10 -14 24 -14 29 0 6 6 1 14 -9 8 -11 15 -24 15 -30z"/>
<path d="M3957 3766 c-11 -27 -8 -54 5 -62 7 -5 9 -2 5 9 -3 9 -1 17 4 19 6 2
7 12 1 27 -7 21 -10 22 -15 7z"/>
<path d="M4020 3719 c0 -5 5 -7 10 -4 6 3 10 8 10 11 0 2 -4 4 -10 4 -5 0 -10
-5 -10 -11z"/>
<path d="M4394 3720 c-26 -10 -46 -58 -42 -101 2 -25 12 -39 37 -56 19 -13 44
-23 56 -23 57 0 97 110 58 159 -20 25 -72 35 -109 21z"/>
<path d="M3074 3648 c-31 -14 -58 -78 -50 -116 15 -65 91 -100 138 -62 92 72
15 228 -88 178z"/>
<path d="M4664 3439 c-21 -22 -63 -52 -92 -66 -45 -22 -66 -26 -145 -26 -51 0
-104 5 -118 11 -14 6 -52 33 -84 61 -93 82 -98 58 -8 -36 48 -49 48 -50 140
-62 139 -19 236 6 310 79 30 30 50 66 41 76 -2 2 -22 -15 -44 -37z"/>
<path d="M3370 3349 c-178 -117 -336 -138 -460 -61 -25 16 -55 35 -67 42 -22
14 -40 9 -29 -8 3 -5 36 -31 74 -56 56 -39 80 -49 137 -57 81 -11 154 0 231
35 73 34 174 104 174 121 0 20 -8 18 -60 -16z"/>
<path d="M2555 3269 c5 -15 4 -19 -4 -15 -6 4 -11 2 -11 -3 0 -6 7 -11 15 -11
9 0 15 9 15 25 0 14 -5 25 -11 25 -6 0 -8 -9 -4 -21z"/>
<path d="M4625 3268 c-8 -30 -27 -35 -149 -45 -75 -6 -79 -5 -96 18 l-18 23
-13 -27 c-9 -19 -24 -30 -53 -37 -80 -21 -85 -29 -18 -29 49 -1 62 -4 62 -17
0 -8 5 -24 11 -35 16 -31 41 -5 35 36 l-5 32 116 7 c117 6 124 5 136 -29 5
-12 76 46 73 60 -1 5 -13 12 -27 15 -13 3 -29 17 -36 30 l-12 24 -6 -26z"/>
<path d="M3705 3230 c-7 -11 15 -56 45 -90 21 -24 22 -24 35 -6 12 16 10 23
-27 62 -46 49 -44 48 -53 34z"/>
<path d="M2558 3224 c-3 -5 1 -22 8 -39 10 -22 13 -25 13 -10 -1 28 -14 61
-21 49z"/>
<path d="M2591 3194 c0 -11 3 -14 6 -6 3 7 2 16 -1 19 -3 4 -6 -2 -5 -13z"/>
<path d="M2621 3064 c0 -11 3 -14 6 -6 3 7 2 16 -1 19 -3 4 -6 -2 -5 -13z"/>
<path d="M2671 2835 c1 -19 18 -51 18 -35 1 13 2 13 11 0 5 -8 10 -10 10 -5 0
13 -20 43 -20 30 0 -5 -5 -3 -10 5 -5 8 -9 11 -9 5z"/>
<path d="M3737 2798 c-51 -63 -63 -94 -76 -187 -28 -213 1 -316 104 -362 53
-25 116 -24 147 1 40 31 62 124 62 260 -1 136 -20 213 -66 265 -67 77 -121 84
-171 23z m88 -268 c-3 -5 -1 -10 4 -10 6 0 11 4 11 9 0 5 23 0 51 -12 l51 -22
-5 -60 c-5 -53 -34 -138 -52 -157 -10 -9 -36 2 -29 13 3 5 -2 6 -11 3 -14 -6
-14 -8 2 -19 15 -11 12 -12 -23 -6 -47 9 -97 43 -113 77 -20 45 -24 99 -8 115
32 30 56 47 76 54 12 3 19 11 16 16 -4 5 3 9 15 9 12 0 18 -4 15 -10z"/>
<path d="M3734 2449 c-3 -6 -1 -16 4 -21 8 -8 11 -5 9 11 -1 24 -3 25 -13 10z"/>
<path d="M3781 2391 c-10 -18 2 -29 52 -45 22 -7 22 -1 -5 34 -25 35 -34 37
-47 11z"/>
<path d="M4594 2599 c-19 -22 -19 -22 3 -10 24 12 39 31 25 31 -5 0 -17 -10
-28 -21z"/>
<path d="M4542 2560 c-12 -10 -28 -20 -35 -23 -6 -2 -9 -8 -5 -12 4 -4 22 7
40 24 36 34 36 42 0 11z"/>
<path d="M2959 2539 c-11 -7 -11 -9 -1 -9 7 0 10 -4 7 -10 -9 -15 11 -12 24 4
14 17 -8 29 -30 15z"/>
<path d="M3022 2517 c13 -10 15 -16 6 -25 -8 -8 -9 -12 -1 -12 22 0 22 30 0
40 -20 10 -20 10 -5 -3z"/>
<path d="M4430 2494 c-25 -13 -34 -21 -20 -18 14 4 35 7 48 6 15 -1 21 2 16 9
-3 6 0 15 7 20 31 19 -9 6 -51 -17z"/>
<path d="M3220 2390 c0 -5 5 -10 11 -10 5 0 7 5 4 10 -3 6 -8 10 -11 10 -2 0
-4 -4 -4 -10z"/>
<path d="M5159 3618 c-6 -12 -5 -48 1 -48 4 0 7 11 6 25 -1 22 -3 30 -7 23z"/>
<path d="M5201 3485 c0 -5 4 -19 9 -30 6 -14 9 -15 10 -5 1 10 4 9 10 -5 5
-13 9 -14 9 -5 0 22 -17 59 -18 40 -1 -13 -2 -13 -11 0 -5 8 -9 11 -9 5z"/>
<path d="M5075 3420 c-3 -5 -1 -10 4 -10 6 0 11 5 11 10 0 6 -2 10 -4 10 -3 0
-8 -4 -11 -10z"/>
<path d="M5242 3400 c0 -14 2 -19 5 -12 2 6 2 18 0 25 -3 6 -5 1 -5 -13z"/>
<path d="M5211 3401 c-8 -6 -9 -11 -3 -15 6 -3 14 -1 17 5 9 14 2 20 -14 10z"/>
<path d="M5220 3359 c0 -5 5 -7 10 -4 6 3 10 8 10 11 0 2 -4 4 -10 4 -5 0 -10
-5 -10 -11z"/>
<path d="M5166 3238 c3 -5 10 -6 15 -3 13 9 11 12 -6 12 -8 0 -12 -4 -9 -9z"/>
<path d="M5100 3160 c0 -5 5 -10 11 -10 5 0 7 5 4 10 -3 6 -8 10 -11 10 -2 0
-4 -4 -4 -10z"/>
<path d="M2320 3424 c0 -8 5 -12 10 -9 6 3 10 10 10 16 0 5 -4 9 -10 9 -5 0
-10 -7 -10 -16z"/>
<path d="M2352 3428 c-18 -18 -15 -28 8 -28 21 0 25 7 12 27 -6 10 -11 10 -20
1z"/>
<path d="M2400 3346 c0 -2 7 -7 16 -10 8 -3 12 -2 9 4 -6 10 -25 14 -25 6z"/>
<path d="M2355 3240 c3 -5 8 -10 11 -10 2 0 4 5 4 10 0 6 -5 10 -11 10 -5 0
-7 -4 -4 -10z"/>
<path d="M2357 3153 c6 -16 8 -16 23 1 9 12 8 15 -8 13 -12 0 -18 -6 -15 -14z"/>
<path d="M2465 3079 c-4 -6 -5 -12 -2 -15 2 -3 7 2 10 11 7 17 1 20 -8 4z"/>
<path d="M2420 3072 c0 -12 19 -26 26 -19 2 2 -2 10 -11 17 -9 8 -15 8 -15 2z"/>
<path d="M6537 5212 c-15 -10 -24 -22 -20 -25 3 -4 1 -7 -6 -7 -9 0 -9 -5 -1
-20 10 -18 18 -20 78 -16 36 2 68 9 70 14 5 17 -49 72 -71 72 -12 0 -34 -8
-50 -18z"/>
<path d="M6710 5136 c0 -8 -7 -16 -17 -18 -13 -2 -12 -7 8 -25 89 -82 138
-109 153 -84 5 7 -129 141 -140 141 -2 0 -4 -6 -4 -14z"/>
<path d="M6900 5076 c0 -8 5 -18 10 -21 6 -3 10 1 10 9 0 8 -4 18 -10 21 -5 3
-10 -1 -10 -9z"/>
<path d="M6940 5081 c0 -5 5 -13 10 -16 6 -3 10 -2 10 4 0 5 -4 13 -10 16 -5
3 -10 2 -10 -4z"/>
<path d="M6894 4979 c-3 -5 -20 -9 -39 -9 -25 0 -35 -5 -40 -21 -7 -20 18
-104 36 -123 5 -6 9 -36 9 -68 0 -56 1 -58 20 -48 11 6 19 14 19 18 -1 4 -1
22 0 41 1 32 2 33 36 29 37 -4 45 4 45 47 0 13 5 34 11 47 17 38 -2 69 -49 84
-24 7 -44 8 -48 3z"/>
<path d="M7111 4824 c0 -11 3 -14 6 -6 3 7 2 16 -1 19 -3 4 -6 -2 -5 -13z"/>
<path d="M7300 4796 c0 -8 -6 -16 -12 -19 -10 -3 -9 -9 3 -22 11 -11 19 -13
23 -6 4 6 2 11 -4 11 -6 0 -8 10 -4 25 3 14 3 25 0 25 -3 0 -6 -6 -6 -14z"/>
<path d="M6560 4780 c-8 -5 -10 -10 -3 -10 6 0 16 -14 22 -32 6 -17 14 -28 18
-25 3 4 12 2 20 -4 10 -9 17 -8 28 1 22 18 18 36 -11 59 -29 23 -51 26 -74 11z"/>
<path d="M6936 4712 c-7 -12 7 -29 29 -34 15 -3 20 -11 19 -36 -1 -21 3 -32
12 -32 21 0 19 96 -2 104 -22 8 -52 7 -58 -2z"/>
<path d="M7245 4680 c4 -14 12 -29 17 -35 7 -7 8 -2 3 15 -4 14 -12 30 -17 35
-7 7 -8 2 -3 -15z"/>
<path d="M6637 4663 c-11 -10 -8 -61 4 -68 6 -4 13 2 16 14 7 29 20 26 38 -9
19 -37 25 -38 25 -5 0 14 -5 25 -11 25 -6 0 -20 11 -31 25 -20 26 -30 30 -41
18z"/>
<path d="M7120 4403 c0 -16 66 -87 72 -77 7 11 -6 28 -45 63 -15 14 -27 20
-27 14z"/>
<path d="M7210 4278 c0 -7 8 -26 19 -41 15 -23 19 -25 25 -12 3 9 -1 27 -10
41 -18 26 -34 32 -34 12z"/>
<path d="M6456 4245 c3 -8 10 -13 14 -10 5 3 11 -1 13 -7 4 -10 6 -10 6 -1 1
7 -8 17 -19 23 -16 9 -18 8 -14 -5z"/>
<path d="M6530 4140 c0 -5 5 -10 11 -10 5 0 7 5 4 10 -3 6 -8 10 -11 10 -2 0
-4 -4 -4 -10z"/>
<path d="M7244 4024 c-10 -37 12 -55 26 -20 14 37 13 46 -5 46 -8 0 -18 -12
-21 -26z"/>
<path d="M7000 3871 c-16 -30 -12 -76 9 -102 10 -13 21 -33 23 -44 2 -11 10
-19 17 -17 16 3 12 -28 -15 -130 -14 -52 -15 -72 -6 -90 9 -21 11 -18 11 23 1
52 25 85 42 58 5 -8 9 -20 9 -26 0 -21 28 -15 44 9 22 31 20 42 -9 58 -31 17
-32 31 -2 57 30 27 57 36 73 22 27 -22 80 123 56 156 -9 12 -29 15 -109 15
-34 1 -75 7 -90 15 -36 19 -40 19 -53 -4z"/>
<path d="M7334 3848 c-18 -28 -54 -104 -54 -112 0 -5 8 -2 17 5 15 12 16 12
10 -5 -6 -16 -5 -17 8 -6 9 7 18 10 22 6 3 -3 1 -6 -5 -6 -7 0 -12 -7 -12 -15
0 -8 -4 -15 -9 -15 -5 0 -7 -10 -4 -22 l5 -23 -16 23 c-10 12 -15 26 -12 31 3
5 0 14 -8 20 -11 10 -18 0 -35 -53 -12 -36 -21 -70 -21 -76 0 -15 20 -12 20 3
0 6 7 21 15 32 14 18 16 18 31 3 15 -15 15 -19 -5 -46 -26 -37 -14 -48 34 -31
l35 13 -1 143 c0 79 -2 143 -4 143 -2 0 -7 -6 -11 -12z"/>
<path d="M6586 3835 c21 -61 35 -128 30 -141 -4 -11 -10 -12 -31 -2 -19 9 -31
8 -52 -2 -16 -7 -44 -15 -63 -17 -41 -5 -47 -10 -32 -25 7 -7 12 -28 12 -48 0
-29 6 -41 30 -58 35 -27 40 -27 41 -4 0 13 2 14 6 2 3 -8 13 -23 21 -33 22
-24 33 -3 25 47 -5 33 -3 38 12 35 15 -3 45 -46 58 -84 3 -5 7 -7 11 -4 3 3
-1 28 -9 55 -12 39 -13 60 -4 102 10 51 9 56 -25 125 -20 40 -33 63 -30 52z"/>
<path d="M6755 3780 c-4 -17 -4 -48 0 -70 8 -48 -2 -87 -18 -71 -30 30 -55 -6
-33 -47 8 -15 22 -44 32 -64 10 -25 23 -38 35 -38 25 0 24 27 -1 35 -45 14
-10 115 40 115 29 0 62 -45 64 -89 1 -23 6 -42 12 -44 5 -1 19 18 30 43 18 37
20 56 15 105 l-6 60 -22 -29 c-13 -16 -20 -32 -17 -37 3 -5 1 -9 -4 -9 -5 0
-17 38 -27 85 -11 47 -23 85 -27 85 -4 0 -8 -5 -8 -10 0 -7 -6 -7 -19 0 -31
16 -39 12 -46 -20z"/>
<path d="M4933 2895 c-3 -9 -3 -18 -1 -21 3 -3 8 4 11 16 6 23 -1 27 -10 5z"/>
<path d="M4964 2830 c-4 -22 -13 -45 -20 -51 -8 -6 -14 -23 -14 -38 0 -15 -5
-32 -12 -39 -7 -7 -8 -12 -2 -12 5 0 8 -19 7 -42 -2 -35 -1 -38 6 -18 5 14 10
18 10 10 1 -13 2 -13 11 0 5 8 10 41 10 73 0 31 4 57 10 57 5 0 9 23 9 50 -1
28 -3 50 -5 50 -2 0 -7 -18 -10 -40z"/>
<path d="M5217 2713 c-11 -11 -8 -20 7 -20 8 0 12 6 9 14 -6 15 -7 15 -16 6z"/>
<path d="M4881 2600 l1 -75 10 64 c6 43 5 68 -2 75 -7 7 -10 -13 -9 -64z"/>
<path d="M5287 2603 c7 -20 33 -60 33 -52 0 9 -31 69 -35 69 -3 0 -2 -8 2 -17z"/>
<path d="M7154 2565 c-16 -12 -17 -14 -3 -15 9 0 19 7 23 15 7 19 5 19 -20 0z"/>
<path d="M5321 2514 c0 -11 3 -14 6 -6 3 7 2 16 -1 19 -3 4 -6 -2 -5 -13z"/>
<path d="M5375 2370 c3 -5 8 -10 11 -10 2 0 4 5 4 10 0 6 -5 10 -11 10 -5 0
-7 -4 -4 -10z"/>
<path d="M6724 2217 c-90 -90 -164 -169 -164 -176 0 -6 35 24 78 68 42 44 105
100 140 125 35 26 60 51 57 56 -3 6 1 7 9 4 9 -3 16 -1 16 5 0 6 7 11 15 11
10 0 15 10 15 29 0 16 6 32 13 34 9 4 8 6 -2 6 -7 1 -87 -72 -177 -162z"/>
<path d="M5390 2330 c0 -5 5 -10 11 -10 5 0 7 5 4 10 -3 6 -8 10 -11 10 -2 0
-4 -4 -4 -10z"/>
<path d="M5410 2303 c0 -7 -9 -9 -22 -5 -20 5 -20 4 -7 -11 12 -13 16 -13 28
-1 8 7 12 17 8 20 -4 4 -7 3 -7 -3z"/>
<path d="M5360 2272 c0 -12 19 -26 26 -19 2 2 -2 10 -11 17 -9 8 -15 8 -15 2z"/>
<path d="M5325 2200 c3 -5 8 -10 11 -10 2 0 4 5 4 10 0 6 -5 10 -11 10 -5 0
-7 -4 -4 -10z"/>
<path d="M5022 2116 c7 -8 15 -12 17 -11 5 6 -10 25 -20 25 -5 0 -4 -6 3 -14z"/>
<path d="M5071 2114 c0 -11 3 -14 6 -6 3 7 2 16 -1 19 -3 4 -6 -2 -5 -13z"/>
<path d="M5020 2031 c0 -6 4 -13 10 -16 6 -3 7 1 4 9 -7 18 -14 21 -14 7z"/>
<path d="M6502 1998 c-14 -17 -19 -67 -7 -68 5 -1 13 8 17 20 5 13 4 19 -2 15
-13 -8 -13 1 0 26 12 22 8 25 -8 7z"/>
<path d="M5117 1980 c-4 -14 -1 -27 6 -32 16 -10 17 -6 8 27 -7 30 -7 30 -14
5z"/>
<path d="M5970 1880 c-9 -6 -10 -10 -3 -10 6 0 15 5 18 10 8 12 4 12 -15 0z"/>
<path d="M7168 1823 c-8 -10 -27 -43 -41 -73 -15 -30 -48 -77 -73 -104 -39
-40 -49 -45 -56 -32 -5 9 -13 16 -17 16 -9 0 -33 -82 -26 -88 2 -3 24 5 48 17
24 11 50 21 59 21 9 0 21 7 29 16 7 8 24 22 39 29 24 12 30 12 58 -5 28 -17
37 -35 33 -62 0 -4 6 -18 13 -33 8 -14 12 -35 9 -45 -8 -30 -68 -89 -108 -106
-19 -8 -35 -18 -35 -23 0 -5 -9 -11 -21 -14 -17 -5 -20 -2 -16 15 7 26 -9 58
-27 58 -20 0 -82 -72 -111 -129 -14 -28 -38 -66 -55 -84 -28 -33 -40 -83 -23
-100 12 -12 43 25 43 51 0 22 44 112 55 112 14 0 22 -41 16 -77 -6 -33 -5 -40
6 -36 7 3 13 8 13 12 0 4 19 18 43 31 23 12 69 51 102 85 46 48 74 68 119 84
32 12 61 19 64 17 2 -3 -14 -26 -37 -52 -38 -43 -52 -71 -33 -62 4 2 31 12 60
22 l52 20 0 252 0 252 -69 16 c-88 20 -95 20 -113 -1z"/>
<path d="M6601 1674 c0 -62 15 -135 19 -94 1 9 5 5 11 -9 l9 -24 18 21 c29 34
62 36 114 8 l48 -25 11 21 c10 18 6 26 -27 58 -22 21 -51 52 -66 70 -23 29
-35 34 -83 38 l-55 4 1 -68z"/>
<path d="M6000 1621 c0 -13 -35 -23 -104 -30 -44 -4 -60 -10 -62 -22 -1 -9 -5
-27 -8 -40 -3 -13 -3 -18 0 -11 9 20 31 14 38 -11 7 -28 33 -60 62 -75 17 -9
33 -8 72 3 64 19 96 56 88 100 -4 16 -11 32 -16 33 -6 2 -10 8 -10 13 0 11
-33 43 -48 47 -7 1 -12 -2 -12 -7z"/>
<path d="M6467 1578 c12 -13 42 -56 68 -97 l47 -73 24 23 c21 21 23 30 17 78
l-6 53 -16 -26 c-9 -14 -19 -26 -22 -26 -4 0 -19 17 -35 38 -35 46 -43 52 -73
52 l-24 0 20 -22z"/>
<path d="M5799 1548 c0 -22 -1 -22 -10 -3 l-9 20 3 -20 c3 -26 16 -25 35 3 13
20 13 22 -2 22 -10 0 -16 -9 -17 -22z"/>
<path d="M6214 1518 c-8 -13 61 -78 83 -78 21 0 15 15 -21 54 -37 38 -50 43
-62 24z"/>
<path d="M6395 1388 c-7 -17 17 -72 35 -83 25 -15 1 -135 -35 -175 -15 -17
-15 -21 -1 -48 21 -41 34 -47 55 -28 22 20 38 20 75 1 30 -16 48 -12 41 8 -3
7 8 20 25 29 16 9 30 23 30 31 0 20 -58 71 -115 101 -27 14 -47 26 -43 26 10
0 -37 129 -51 143 -7 7 -12 6 -16 -5z"/>
<path d="M6080 1294 c0 -14 3 -15 18 -3 9 7 19 15 21 16 2 2 -5 3 -17 3 -14 0
-22 -6 -22 -16z"/>
<path d="M6137 1286 c5 -23 -38 -117 -82 -179 -22 -32 -19 -56 10 -63 55 -14
85 27 43 59 l-25 19 64 63 c54 52 64 67 61 91 -3 25 -8 29 -39 32 -34 3 -36 1
-32 -22z"/>
<path d="M6610 1275 c-12 -15 -8 -25 25 -61 6 -6 25 -27 43 -48 40 -46 65 -45
67 4 1 19 4 44 8 56 6 18 4 20 -22 16 -19 -2 -42 5 -69 22 -35 22 -42 23 -52
11z"/>
<path d="M6190 1155 l-22 -35 21 -18 c11 -9 26 -29 34 -44 13 -26 13 -26 15
20 1 26 2 60 4 77 4 44 -25 44 -52 0z"/>
<path d="M6315 930 c-3 -5 -2 -10 4 -10 5 0 13 5 16 10 3 6 2 10 -4 10 -5 0
-13 -4 -16 -10z"/>
<path d="M6270 895 c-20 -24 -6 -28 15 -5 10 11 13 20 8 20 -6 0 -16 -7 -23
-15z"/>
<path d="M2343 30 c-2 -21 2 -30 13 -30 11 0 14 6 10 16 -3 9 -6 22 -6 30 0
27 -15 14 -17 -16z"/>
</g>
</svg>
